<?xml version="1.0" encoding="UTF-8" standalone="no"?>
<!-- Created with Inkscape (http://www.inkscape.org/) -->

<svg
   width="197.774mm"
   height="191.39999mm"
   viewBox="0 0 197.774 191.39999"
   version="1.1"
   id="svg1"
   xml:space="preserve"
   inkscape:version="1.3.2 (091e20e, 2023-11-25)"
   sodipodi:docname="motif-2.svg"
   xmlns:inkscape="http://www.inkscape.org/namespaces/inkscape"
   xmlns:sodipodi="http://sodipodi.sourceforge.net/DTD/sodipodi-0.dtd"
   xmlns="http://www.w3.org/2000/svg"
   xmlns:svg="http://www.w3.org/2000/svg"><sodipodi:namedview
     id="namedview1"
     pagecolor="#ffffff"
     bordercolor="#000000"
     borderopacity="0.25"
     inkscape:showpageshadow="2"
     inkscape:pageopacity="0.0"
     inkscape:pagecheckerboard="0"
     inkscape:deskcolor="#d1d1d1"
     inkscape:document-units="mm"
     inkscape:zoom="1.3115105"
     inkscape:cx="280.21126"
     inkscape:cy="377.04617"
     inkscape:window-width="1896"
     inkscape:window-height="1212"
     inkscape:window-x="265"
     inkscape:window-y="150"
     inkscape:window-maximized="0"
     inkscape:current-layer="layer1" /><defs
     id="defs1" /><g
     inkscape:label="Layer 1"
     inkscape:groupmode="layer"
     id="layer1"
     transform="translate(-13.197209,-51.068916)"><path
       id="path12"
       style="fill:#454e3d;fill-opacity:1;stroke:none;stroke-width:0.2;stroke-dasharray:none;stroke-opacity:1"
       d="m 62.691982,64.737437 c 0.142651,0.695425 1.050477,4.391072 1.193128,2.322628 -0.628272,-9.56935 -9.366643,-13.675296 -17.144787,-14.375944 -11.091138,-0.427954 -17.666047,4.136347 -21.347972,11.316505 -2.086275,4.653998 -0.999301,12.206147 0.453959,14.069531 0.855908,1.292776 2.189327,1.785412 0.994622,-0.45243 -1.64049,-3.352305 -1.816704,-8.807124 -0.675493,-12.052442 2.36135,-4.891617 3.577544,-6.073329 8.431272,-8.675973 3.236619,-1.543422 5.466442,-2.44207 11.862326,-2.201084 2.888689,0.178317 14.057513,2.560016 16.232945,10.049209 z m 15.689635,22.761806 c -0.802414,1.14121 -0.12482,2.104107 0.980728,1.390851 4.029899,-2.942183 7.952809,-6.169669 7.703169,-11.198127 -0.213977,-3.958573 -4.461436,-7.721528 -8.840795,-7.929386 -7.382205,-0.142651 -10.049312,3.299337 -10.65558,4.119582 -1.497839,2.318084 -0.225165,3.346186 1.165685,1.88401 2.817363,-3.53062 6.062677,-3.851582 7.48919,-3.994234 5.492075,0.03566 7.417868,1.551332 8.95137,4.796649 1.194704,5.652557 -4.939301,8.648234 -6.793767,10.930655 z m -3.991811,12.537077 c -0.838076,0.99857 -0.06425,1.90894 1.059132,1.16001 8.381911,-5.399146 13.450627,-9.4014 19.211246,-13.183286 7.222806,-4.602132 9.818016,-8.51914 11.355346,-12.354581 0.6852,-2.641187 -1.72619,-6.626065 -5.72743,-6.967396 -2.783746,-0.308709 -4.132813,0.344609 -6.480876,1.538264 -2.24435,1.891306 0.6591,2.199411 1.415758,1.509462 2.159176,-2.141779 4.893578,-1.62952 7.177058,-0.09169 4.81448,2.692544 -1.8869,8.935531 -4.204984,11.039638 -2.514229,2.514229 -21.91512,15.138491 -23.80525,17.349589 z m -48.221833,26.25821 c 0.338796,0.16049 2.669463,0.18797 2.577771,1.46008 -0.445785,2.71038 -2.920153,1.46514 -2.920153,1.46514 -1.676152,-1.01639 -2.157946,-3.20229 -2.08662,-3.86206 0,0 -0.139682,-1.96993 1.375988,-3.53909 1.087716,-1.12338 1.576243,-0.0311 0.827324,0.89611 0,0 -1.593115,2.56343 0.22569,3.57982 z M 18.05513,159.69 c -0.106989,3.88725 1.553777,2.79289 1.411126,1.47337 0.320965,-12.01837 14.841822,-29.61145 24.612206,-40.44875 1.230367,-1.44434 -0.252455,-3.06997 -1.714785,-1.41217 -7.646436,7.92519 -23.445036,27.06714 -24.308547,40.38755 z m 15.532884,79.24391 c 2.791612,2.14322 4.656706,1.00626 1.008697,-1.63914 -12.306103,-9.53218 -14.63476,-30.38174 -14.525237,-34.72439 -0.353044,-27.13395 12.406972,-45.03832 16.845239,-50.88876 14.540624,-19.1878 30.01739,-28.71621 34.800047,-31.47134 19.127661,-10.76456 41.27075,-15.60823 50.83834,-18.86264 16.55382,-4.814309 27.95296,-9.257464 32.68178,-15.332202 6.44657,-7.572576 7.21979,-14.615788 4.53914,-22.090464 -5.04348,-8.876534 -15.76522,-11.382019 -21.11131,-9.433851 -2.0174,0.706088 -5.50815,3.233949 -4.9844,4.932477 0.60522,13.21393 -4.56868,15.597042 -12.63826,21.144875 -12.12536,6.918588 -18.37784,8.559227 -34.497445,17.046979 -6.06268,2.924356 -26.069642,15.005636 -37.624397,25.419176 -9.700288,9.34366 -11.12275,11.8888 -19.467851,23.3009 -3.261573,4.17657 -8.611507,15.36767 -11.600016,27.73916 -0.743915,2.4587 -3.379134,18.9635 -2.269568,28.69743 2.067829,16.3409 6.985226,28.31917 18.005241,36.16179 z m -2.420874,-9.9861 c 2.673047,3.02609 2.925222,0.50434 2.06783,-1.81566 -12.954694,-27.56262 5.569955,-59.96066 19.237799,-72.97285 17.984382,-18.79641 37.099876,-25.1363 49.504911,-28.30032 25.24928,-5.5634 52.0949,-2.51352 66.574,-3.83305 34.94957,-1.85447 39.54092,-21.98961 39.54092,-21.98961 6.13401,-22.824203 -18.05567,-27.63829 -19.06437,-27.335681 -3.28098,-0.356628 -6.1308,0.430179 -7.15458,1.53035 -0.88549,0.895446 -2.21475,3.659528 -2.72534,6.228933 -0.53581,2.241578 -2.74387,6.000303 -4.43979,9.127546 -3.37992,6.23492 -4.92941,6.296032 -9.95206,8.885379 -10.1714,4.192033 -47.93081,7.740653 -62.98052,14.373943 -22.253613,7.98847 -38.948099,16.74958 -55.780952,34.29569 -20.829593,24.4609 -29.981399,57.284 -14.827848,81.80533 z m 3.73218,-3.53044 c 0.655653,1.21044 3.631308,1.81565 2.723481,-0.90783 -7.346542,-22.75288 10.579952,-49.78291 13.289585,-52.07398 10.286842,-12.73713 26.861393,-20.1193 36.71657,-22.79655 15.657784,-5.38181 45.404124,-4.27445 53.158344,-3.22783 12.23847,1.53678 28.30657,3.08295 35.73309,2.54696 12.00793,-1.20537 20.04426,-5.44993 21.2835,-7.06088 6.70461,-7.84582 5.99729,-15.01821 4.28696,-18.40872 -2.83361,-4.45606 -10.14754,-5.23508 -11.1461,-4.23652 -3.63538,2.99357 -8.94811,8.61286 -14.44958,10.31392 -10.77017,4.42219 -25.03189,0.6009 -31.95048,0.52957 -7.98847,-0.99856 -34.57818,-0.62079 -49.627901,4.94261 -10.48487,3.067 -26.507732,10.03644 -38.633092,22.09047 -3.566282,3.067 -13.325935,13.25721 -19.745243,28.5209 -1.992177,3.53044 -8.415071,25.00347 -1.639134,39.76788 z m 3.429569,-8.67479 c 0.106988,0.85591 1.554828,0.99602 1.412177,-0.25218 1.213406,-22.46425 23.421628,-44.61309 31.704131,-48.42883 30.361793,-14.3235 59.781353,-3.93663 62.229113,-3.81845 14.80262,3.20261 32.56799,8.10961 41.62104,6.24352 9.9861,-1.36174 14.12396,-12.46381 13.26657,-15.69164 -1.96696,-8.37219 -13.87747,-1.81268 -14.83573,-1.71181 -8.47305,2.47131 -23.03268,1.19059 -25.10663,0.60626 -16.70005,-3.24513 -45.79107,-1.60482 -45.79107,-1.60482 -16.290468,0.55478 -29.745876,7.27916 -40.08502,14.69308 0,0 -25.019799,19.19961 -24.414581,49.96487 z m 3.328702,5.85044 c 0.285303,1.17687 2.237488,1.93803 1.916523,-0.20174 -2.353746,-14.62176 8.812196,-24.65084 11.700885,-26.32699 10.556196,-7.06124 25.893787,-7.94424 28.247533,-8.12255 11.48343,-1.10555 17.585258,-9.17371 13.163062,-16.19929 -5.5634,-7.98847 -15.670467,-5.12055 -16.768846,-4.14072 -4.248944,3.17004 -1.303393,5.62242 -1.303393,5.62242 2.930407,2.62682 7.058343,1.55423 6.157376,3.85321 -1.925792,4.13689 -10.171223,2.78554 -16.483542,4.46169 -3.780259,0.78458 -13.146442,5.20414 -17.853935,11.80176 0,0 -11.236398,15.94998 -8.775663,29.25221 z m 4.074709,-2.92734 c 0.112096,0.89714 1.588454,1.57402 1.304564,-0.25745 -0.943653,-4.85389 1.696957,-13.02484 12.327166,-18.12976 10.949659,-4.9451 24.145142,-1.92512 35.215154,-1.72557 19.518306,0.25217 33.121836,-21.19964 18.546156,-33.05183 -6.20348,-5.19479 -13.19043,3.76924 -10.81998,5.93794 9.38088,6.15305 1.16844,16.42492 -8.46463,19.04753 -9.921138,3.22771 -21.049088,0.0799 -30.461678,3.82629 -14.958158,6.63513 -17.742534,12.21951 -17.646752,24.35285 z m -5.234711,19.9491 c -0.768272,0.0193 0.573332,-2.18808 0.01232,-3.21029 -1.238605,-1.73547 -3.254926,-1.71778 -3.201432,-2.02091 -0.554783,-1.10957 0.415193,-5.94012 3.769111,-6.69664 1.386958,-0.22696 3.227829,2.11825 2.471306,4.65261 0,0 -0.592614,1.68957 -0.378266,2.49652 0.315218,0.78174 1.563486,3.46741 -2.673041,4.77871 z"
       inkscape:label="Leaves" /><path
       id="path33"
       style="display:inline;fill:#a86d31;fill-opacity:1;stroke:none;stroke-width:0.2;stroke-dasharray:none;stroke-opacity:1"
       d="m 64.455284,176.65631 c -0.01261,-0.85739 -0.12263,-2.3857 2.853026,-4.52918 0.441305,-0.73131 1.889016,-0.47875 2.53206,-0.21397 0.315218,0.21435 0.922166,0.18443 1.426514,0.2853 1.008697,0.39087 0.775927,0.76437 0.813754,1.40741 0.01261,0.62413 -2.455296,2.87138 -3.060514,3.30008 -0.504348,0.40348 -4.539623,0.60775 -4.56484,-0.24964 z M 48.148458,98.840023 c -0.347713,0.392291 -0.160481,3.601947 -0.115903,4.074487 0.213977,1.43542 0.846991,1.44434 1.453259,1.71181 1.194705,0.42795 3.28098,-1.48892 3.860501,-2.75495 0.410123,-0.86483 -4.814482,-3.494964 -5.197857,-3.031347 z m -5.260267,1.257107 c -0.392291,0.40121 -2.710373,5.00173 -2.041695,5.608 1.480007,1.13229 4.645081,0.25855 4.912552,-0.14266 0.517111,-0.58844 0.436869,-2.8976 0.213976,-3.43254 -0.534943,-1.62267 -2.665795,-2.532075 -3.084833,-2.0328 z m -2.352777,-0.741676 c -1.733698,-1.191523 -5.409138,0.409785 -5.825226,1.197836 -0.353044,0.50434 -0.504347,2.35152 -0.441303,3.22783 -0.05044,0.725 1.034003,2.15778 1.95435,2.14348 0.718696,0.0315 1.219538,-0.48326 1.490625,-0.56522 0.490288,-0.12173 0.753726,-1.5026 1.724597,-1.84304 0.649033,-0.38942 0.416464,-1.48986 0.861296,-2.17701 0.5457,-0.81323 0.624749,-1.681997 0.235661,-1.983876 z m 0.491741,-3.265653 c 0,0 -1.941741,-4.337398 -4.564353,-3.492614 -0.441305,0.02522 -2.723485,2.118263 -1.866092,4.879571 0.529566,0.920436 3.480005,0.29 3.706962,-0.39087 0.06304,-0.163913 0.630436,-0.567392 0.907828,-0.353044 0.302609,0.176522 2.093047,-0.126086 1.815655,-0.643043 z m 2.752606,-2.108839 c 1.194705,0.338796 2.059529,0.187229 2.050613,-0.222893 0.08024,-0.927233 1.301694,-2.924351 0.820246,-3.789174 -0.178314,-0.383375 -0.49928,-1.408681 -1.569165,-1.658321 -0.347713,-0.08024 -1.711815,-0.383377 -2.166516,-0.151569 -0.659762,0.383375 -1.881215,0.766751 -2.371579,1.82772 -0.142651,0.222893 -0.09807,1.257116 0.08916,1.471093 0.240581,0.417334 1.400502,1.167456 1.908941,1.554996 0.472776,0.449951 0.821687,0.835954 1.2383,0.968148 z m 4.598273,1.150576 c -0.05044,0.78174 1.223046,0.718695 1.361742,0.416086 0.126087,-0.163913 0.252171,-0.643043 0.252171,-0.643043 0.06304,-0.756523 0.30261,-0.97087 0.680871,-1.096957 1.096958,-0.05044 4.17296,-2.482233 4.502579,-3.229361 1.008697,-3.026091 -4.956491,-3.907171 -6.14171,-2.129343 -0.365653,0.617827 0.491739,3.202612 0.08826,4.488701 -0.617827,1.134784 -0.743913,2.193917 -0.743913,2.193917 z m 2.584786,1.878698 c 0.580001,0.823768 3.351464,1.902165 5.446964,2.62261 0.643044,0.07565 1.336521,-0.958259 1.74,-1.286086 0.428696,-0.176522 0.20174,-4.665224 -0.68087,-5.068703 -0.163913,-0.100869 -1.866089,-0.441297 -3.000873,0.428704 -0.327827,0.504348 -3.555656,2.509126 -3.505221,3.303475 z m -1.109567,-11.95306 c -0.617827,-0.49174 0.253298,-2.928235 0.252174,-3.744788 -0.08826,-0.428696 1.096959,-2.168699 1.260872,-2.332612 0.327827,-0.39087 1.702174,-1.386957 4.198699,-1.45 1.903916,-0.02522 3.93392,2.673045 3.883485,3.921308 -0.138696,0.718696 -2.514356,2.414754 -2.83696,2.521742 -0.592609,0.378262 -2.231744,0.403479 -3.05131,0.88261 0,0 -2.82435,1.298698 -3.70696,0.20174 z m -5.610876,1.021307 c -0.844784,0.353044 -0.920438,-4.791311 -1.550874,-5.295659 -0.617827,-0.327826 -0.945651,-1.122178 -1.462608,-1.437396 -0.648679,-0.729764 1.54462,-2.137523 2.558868,-2.382483 2.060771,-0.522352 3.276396,0.376068 4.275052,1.184657 1.033915,1.17261 -0.453912,6.405227 -3.820438,7.930881 z m -5.131747,2.206525 c -1.059132,0.49174 -6.909576,-3.126962 -7.300446,-4.400442 -1.153268,-2.173347 3.82044,-3.101742 5.610877,-3.341307 2.597395,-0.10087 3.706963,6.859139 1.689569,7.741749 z m -4.160875,3.31609 c -1.025415,1.323481 -9.476068,3.237688 -10.389579,2.181308 -1.586996,-1.729647 2.427427,-5.924149 3.696516,-6.467745 3.423631,-1.26603 7.620296,3.180889 6.693063,4.286437 z m -2.769327,6.204703 c -0.07133,0.392291 -1.060969,0.686507 -1.310609,2.157598 -0.320965,1.141221 -5.12653,5.420761 -5.982438,5.108711 -4.020983,-1.1947 -2.023865,-7.087996 -1.693984,-7.373299 0.526027,-0.722172 2.211095,-0.187231 4.261708,-0.401208 1.292777,-0.205061 4.778817,-0.579518 4.725323,0.508198 z m -0.307459,7.366179 c 1.001093,0.8116 -1.905953,4.50865 -3.116172,7.32691 -0.285302,0.67759 -1.105547,0.9094 -2.40724,0.87374 -1.39085,-0.19615 -2.870857,-3.31664 -2.549892,-4.6005 0,0 0.12482,-1.39085 1.462176,-1.71182 0,0 2.032781,-0.35662 3.726765,-1.72964 0.874225,-0.93258 1.928632,-0.73228 2.884363,-0.15869 z m 5.435521,4.66444 c 0.04125,0.19255 -0.452486,1.93514 -0.546268,3.39258 -0.06561,1.02408 -0.110149,2.30029 -0.400328,2.74702 -1.7029,2.19326 -6.419307,-0.34771 -6.383644,-1.29278 -0.01783,-1.16796 0.463617,-1.02531 0.838076,-1.45326 0.267471,-0.27639 3.229016,-4.10682 3.853115,-4.56152 0.757835,-0.51711 2.372102,-0.0676 2.639049,1.16796 z m 3.448848,-0.85031 c -0.570606,0.49928 -1.533501,3.5841 -1.426513,6.72243 0.05349,1.15904 3.441462,1.51568 5.402917,-0.49927 0.784582,-0.87375 0.731089,-2.10411 0.463618,-4.47569 -0.178317,-1.1412 -0.294219,-1.56916 -1.150126,-2.21109 -0.56169,-0.32988 -2.398326,-0.65976 -3.289896,0.46362 z m 9.171567,-1.76281 c -0.239566,0.0631 -1.216742,0.52957 -1.563481,1.13479 -0.371957,0.78174 -0.895221,4.67783 0.07565,5.72435 1.185219,1.27348 2.534353,1.00869 3.265659,0.83217 1.008697,-0.34043 1.475217,-0.94564 1.916522,-2.01738 0.405604,-1.16359 -0.07565,-3.15218 -0.605218,-3.9087 -0.29,-0.51696 -1.777826,-2.06784 -3.089132,-1.76523 z m 6.716219,-20.900931 c -0.320965,0.945065 0.659764,1.426513 0.659764,1.426513 0.285303,0.213977 3.628692,0.668679 4.083393,0.704342 2.148685,0.08024 2.977847,0.02675 3.45038,-0.09807 1.471091,-0.526026 2.407239,-1.176874 3.093748,-2.059528 1.212536,-1.685069 -0.160482,-2.532061 -0.392291,-3.111582 -0.720986,-1.272462 -1.569603,-0.943107 -2.259942,-1.298297 -0.672509,-0.488925 -1.449706,-0.820442 -2.108754,-0.582917 -1.640026,0.785037 -2.252405,1.643326 -3.797679,2.809623 -1.081657,0.863163 -2.436914,1.606392 -2.728619,2.209918 z m 2.639445,6.602644 c 0.226957,0.731305 4.510598,2.31668 5.115816,2.821029 0.390236,0.344128 2.706339,0.554041 2.864604,0.250907 0.453914,-0.706088 1.578251,-0.918011 1.779991,-1.195402 0.213977,-0.133736 0.283773,-2.355882 0.09654,-2.96215 -0.160483,-0.543858 -0.574578,-1.11031 -1.938681,-1.663084 -0.410122,-0.196146 -1.702504,-0.618986 -3.03986,-0.164285 -1.729647,0.579521 -3.452207,0.467899 -3.844498,0.744286 -0.561689,0.383375 -1.230061,1.48219 -1.033915,2.168699 z m 0.07565,8.296537 c 0.126087,0.8574 1.76522,1.85349 2.055221,2.05523 1.210437,0.97087 3.290874,1.0213 3.92131,0.76913 2.118264,-0.83218 1.840872,-3.56828 1.311306,-4.387846 -0.933045,-1.412176 -2.24435,-1.992175 -3.959135,-1.714783 -1.18493,0.216378 -1.676196,0.966254 -2.30832,1.398436 -0.796037,0.583487 -1.102407,1.380223 -1.020382,1.879833 z m -4.438266,2.95044 c -0.769131,1.63913 -0.428696,3.74479 0.857393,4.74088 0,0 1.664349,1.89131 3.580873,0.70609 0,0 1.550501,-1.03794 1.538263,-2.26958 0,0 -0.210454,-1.47021 -2.244351,-2.84956 -3.049696,-1.60303 -3.732178,-0.32783 -3.732178,-0.32783 z"
       inkscape:label="Petals" /></g></svg>
